<?xml version="1.0" encoding="UTF-8"?>
<!DOCTYPE svg PUBLIC "-//W3C//DTD SVG 1.1//EN" "http://www.w3.org/Graphics/SVG/1.1/DTD/svg11.dtd">
<svg version="1.2" width="38.36mm" height="38.36mm" viewBox="0 0 3836 3836" preserveAspectRatio="xMidYMid" fill-rule="evenodd" stroke-width="28.222" stroke-linejoin="round" xmlns="http://www.w3.org/2000/svg" xmlns:ooo="http://xml.openoffice.org/svg/export" xmlns:xlink="http://www.w3.org/1999/xlink" xmlns:presentation="http://sun.com/xmlns/staroffice/presentation" xmlns:smil="http://www.w3.org/2001/SMIL20/" xmlns:anim="urn:oasis:names:tc:opendocument:xmlns:animation:1.0" xml:space="preserve">
 <defs class="ClipPathGroup">
  <clipPath id="presentation_clip_path" clipPathUnits="userSpaceOnUse">
   <rect x="0" y="0" width="3836" height="3836"/>
  </clipPath>
  <clipPath id="presentation_clip_path_shrink" clipPathUnits="userSpaceOnUse">
   <rect x="3" y="3" width="3829" height="3829"/>
  </clipPath>
 </defs>
 <defs class="TextShapeIndex">
  <g ooo:slide="id1" ooo:id-list="id3"/>
 </defs>
 <defs class="EmbeddedBulletChars">
  <g id="bullet-char-template-57356" transform="scale(0.00048828125,-0.00048828125)">
   <path d="M 580,1141 L 1163,571 580,0 -4,571 580,1141 Z"/>
  </g>
  <g id="bullet-char-template-57354" transform="scale(0.00048828125,-0.00048828125)">
   <path d="M 8,1128 L 1137,1128 1137,0 8,0 8,1128 Z"/>
  </g>
  <g id="bullet-char-template-10146" transform="scale(0.00048828125,-0.00048828125)">
   <path d="M 174,0 L 602,739 174,1481 1456,739 174,0 Z M 1358,739 L 309,1346 659,739 1358,739 Z"/>
  </g>
  <g id="bullet-char-template-10132" transform="scale(0.00048828125,-0.00048828125)">
   <path d="M 2015,739 L 1276,0 717,0 1260,543 174,543 174,936 1260,936 717,1481 1274,1481 2015,739 Z"/>
  </g>
  <g id="bullet-char-template-10007" transform="scale(0.00048828125,-0.00048828125)">
   <path d="M 0,-2 C -7,14 -16,27 -25,37 L 356,567 C 262,823 215,952 215,954 215,979 228,992 255,992 264,992 276,990 289,987 310,991 331,999 354,1012 L 381,999 492,748 772,1049 836,1024 860,1049 C 881,1039 901,1025 922,1006 886,937 835,863 770,784 769,783 710,716 594,584 L 774,223 C 774,196 753,168 711,139 L 727,119 C 717,90 699,76 672,76 641,76 570,178 457,381 L 164,-76 C 142,-110 111,-127 72,-127 30,-127 9,-110 8,-76 1,-67 -2,-52 -2,-32 -2,-23 -1,-13 0,-2 Z"/>
  </g>
  <g id="bullet-char-template-10004" transform="scale(0.00048828125,-0.00048828125)">
   <path d="M 285,-33 C 182,-33 111,30 74,156 52,228 41,333 41,471 41,549 55,616 82,672 116,743 169,778 240,778 293,778 328,747 346,684 L 369,508 C 377,444 397,411 428,410 L 1163,1116 C 1174,1127 1196,1133 1229,1133 1271,1133 1292,1118 1292,1087 L 1292,965 C 1292,929 1282,901 1262,881 L 442,47 C 390,-6 338,-33 285,-33 Z"/>
  </g>
  <g id="bullet-char-template-9679" transform="scale(0.00048828125,-0.00048828125)">
   <path d="M 813,0 C 632,0 489,54 383,161 276,268 223,411 223,592 223,773 276,916 383,1023 489,1130 632,1184 813,1184 992,1184 1136,1130 1245,1023 1353,916 1407,772 1407,592 1407,412 1353,268 1245,161 1136,54 992,0 813,0 Z"/>
  </g>
  <g id="bullet-char-template-8226" transform="scale(0.00048828125,-0.00048828125)">
   <path d="M 346,457 C 273,457 209,483 155,535 101,586 74,649 74,723 74,796 101,859 155,911 209,963 273,989 346,989 419,989 480,963 531,910 582,859 608,796 608,723 608,648 583,586 532,535 482,483 420,457 346,457 Z"/>
  </g>
  <g id="bullet-char-template-8211" transform="scale(0.00048828125,-0.00048828125)">
   <path d="M -4,459 L 1135,459 1135,606 -4,606 -4,459 Z"/>
  </g>
  <g id="bullet-char-template-61548" transform="scale(0.00048828125,-0.00048828125)">
   <path d="M 173,740 C 173,903 231,1043 346,1159 462,1274 601,1332 765,1332 928,1332 1067,1274 1183,1159 1299,1043 1357,903 1357,740 1357,577 1299,437 1183,322 1067,206 928,148 765,148 601,148 462,206 346,322 231,437 173,577 173,740 Z"/>
  </g>
 </defs>
 <g>
  <g id="id2" class="Master_Slide">
   <g id="bg-id2" class="Background"/>
   <g id="bo-id2" class="BackgroundObjects"/>
  </g>
 </g>
 <g class="SlideGroup">
  <g>
   <g id="container-id1">
    <g id="id1" class="Slide" clip-path="url(#presentation_clip_path)">
     <g class="Page">
      <g class="com.sun.star.drawing.ClosedBezierShape">
       <g id="id3">
        <rect class="BoundingBox" stroke="none" fill="none" x="15" y="13" width="3807" height="3807"/>
        <path fill="rgb(255,255,255)" stroke="none" d="M 1904,3819 C 870,3811 25,2971 15,1935 L 15,1907 C 20,871 859,24 1898,13 L 1941,13 C 2441,20 2910,218 3263,571 3616,924 3814,1393 3821,1890 L 3821,1946 C 3814,2437 3619,2903 3271,3253 2918,3611 2446,3812 1944,3819 L 1904,3819 Z M 2030,2690 L 2030,3544 C 2268,3330 2453,3070 2575,2785 2398,2732 2215,2700 2030,2690 Z M 1258,2785 C 1343,2980 1457,3163 1597,3330 1660,3406 1732,3478 1806,3544 L 1806,2690 C 1621,2700 1438,2732 1258,2785 Z M 2795,2864 C 2692,3107 2551,3330 2374,3528 2649,3451 2900,3303 3109,3094 3123,3081 3136,3065 3152,3052 3035,2975 2916,2914 2795,2864 Z M 690,3049 C 896,3274 1163,3441 1465,3525 1451,3510 1435,3494 1422,3478 1264,3290 1137,3084 1044,2861 920,2914 803,2975 690,3049 Z M 2871,2647 C 3017,2708 3157,2782 3292,2869 3464,2621 3567,2332 3588,2028 L 2982,2028 C 2980,2060 2980,2092 2977,2126 2959,2306 2924,2481 2871,2647 Z M 248,2028 C 269,2340 375,2629 544,2869 679,2782 819,2708 962,2647 898,2449 864,2240 854,2028 L 248,2028 Z M 1084,2028 C 1092,2213 1123,2393 1179,2568 1383,2504 1594,2467 1806,2459 L 1806,2028 1084,2028 Z M 2030,2459 C 2242,2470 2451,2504 2654,2568 2699,2420 2731,2264 2744,2105 2747,2078 2747,2052 2750,2028 L 2030,2028 2030,2459 Z M 2980,1804 L 3588,1804 C 3567,1500 3467,1211 3292,963 3157,1053 3014,1127 2866,1187 2932,1386 2969,1592 2980,1804 Z M 2030,1804 L 2750,1804 C 2739,1619 2707,1439 2652,1264 2448,1328 2242,1362 2030,1373 L 2030,1804 Z M 1086,1804 L 1806,1804 1806,1373 C 1597,1362 1388,1328 1187,1264 1139,1418 1107,1579 1092,1743 1089,1764 1086,1783 1086,1804 Z M 248,1804 L 856,1804 C 859,1777 859,1751 861,1724 877,1539 914,1359 967,1187 822,1127 679,1053 544,963 375,1203 269,1492 248,1804 Z M 2030,307 L 2030,1142 C 2213,1135 2393,1103 2570,1050 2488,862 2377,682 2239,521 2176,444 2104,373 2030,307 Z M 1266,1050 C 1443,1103 1623,1135 1806,1142 L 1806,307 C 1570,516 1388,770 1266,1050 Z M 2350,299 C 2371,322 2393,346 2414,373 2570,555 2694,759 2787,973 2911,920 3033,859 3149,783 3133,767 3117,751 3102,732 2890,521 2631,373 2350,299 Z M 690,783 C 806,857 925,920 1049,971 1155,725 1301,497 1486,299 1174,383 901,553 690,783 Z"/>
       </g>
      </g>
     </g>
    </g>
   </g>
  </g>
 </g>
</svg>